<mxfile host="app.diagrams.net" modified="2021-06-17T21:00:47.925Z" agent="5.0 (Windows NT 10.0; Win64; x64) AppleWebKit/537.36 (KHTML, like Gecko) Chrome/91.0.4472.101 Safari/537.36" etag="Jp-tOhTUOYh7DQwdSLJj" version="14.8.0" type="github">
  <diagram id="60dDJxIYFEsfsLh9ttuz" name="Page-1">
    <mxGraphModel dx="1422" dy="3132" grid="1" gridSize="10" guides="1" tooltips="1" connect="1" arrows="1" fold="1" page="1" pageScale="1" pageWidth="827" pageHeight="1169" math="0" shadow="0">
      <root>
        <mxCell id="0" />
        <mxCell id="1" parent="0" />
        <mxCell id="kSkQl4vreCL8ChjPLTnH-8" style="edgeStyle=orthogonalEdgeStyle;rounded=0;orthogonalLoop=1;jettySize=auto;html=1;" parent="1" source="klmmPDJRtt_HLgbDGjna-13" target="kSkQl4vreCL8ChjPLTnH-7" edge="1">
          <mxGeometry relative="1" as="geometry" />
        </mxCell>
        <mxCell id="klmmPDJRtt_HLgbDGjna-13" value="spring cloud config server" style="rounded=1;whiteSpace=wrap;html=1;" parent="1" vertex="1">
          <mxGeometry x="354" y="-2030" width="120" height="60" as="geometry" />
        </mxCell>
        <mxCell id="kSkQl4vreCL8ChjPLTnH-7" value="GiHub config repo" style="ellipse;whiteSpace=wrap;html=1;aspect=fixed;" parent="1" vertex="1">
          <mxGeometry x="374" y="-2180" width="80" height="80" as="geometry" />
        </mxCell>
        <mxCell id="jpqpTq20g_OJKVMwTmPv-3" style="edgeStyle=orthogonalEdgeStyle;rounded=0;orthogonalLoop=1;jettySize=auto;html=1;" parent="1" source="jpqpTq20g_OJKVMwTmPv-2" target="klmmPDJRtt_HLgbDGjna-13" edge="1">
          <mxGeometry relative="1" as="geometry" />
        </mxCell>
        <mxCell id="jpqpTq20g_OJKVMwTmPv-2" value="Vertical Container" style="swimlane;" parent="1" vertex="1">
          <mxGeometry x="24" y="-1880" width="780" height="460" as="geometry" />
        </mxCell>
        <mxCell id="kSkQl4vreCL8ChjPLTnH-2" value="" style="shape=cylinder3;whiteSpace=wrap;html=1;boundedLbl=1;backgroundOutline=1;size=15;" parent="jpqpTq20g_OJKVMwTmPv-2" vertex="1">
          <mxGeometry x="700" y="60" width="60" height="80" as="geometry" />
        </mxCell>
        <mxCell id="kZvP22-OOC9f0tl3EO52-1" value="" style="shape=cylinder3;whiteSpace=wrap;html=1;boundedLbl=1;backgroundOutline=1;size=15;" parent="jpqpTq20g_OJKVMwTmPv-2" vertex="1">
          <mxGeometry x="40" y="60" width="60" height="80" as="geometry" />
        </mxCell>
        <mxCell id="jpqpTq20g_OJKVMwTmPv-5" style="edgeStyle=orthogonalEdgeStyle;rounded=0;orthogonalLoop=1;jettySize=auto;html=1;" parent="jpqpTq20g_OJKVMwTmPv-2" source="klmmPDJRtt_HLgbDGjna-2" target="jpqpTq20g_OJKVMwTmPv-4" edge="1">
          <mxGeometry relative="1" as="geometry">
            <Array as="points">
              <mxPoint x="240" y="210" />
            </Array>
          </mxGeometry>
        </mxCell>
        <mxCell id="kwVWXpZznFQsvgrrptni-4" style="edgeStyle=orthogonalEdgeStyle;rounded=0;orthogonalLoop=1;jettySize=auto;html=1;" edge="1" parent="jpqpTq20g_OJKVMwTmPv-2" source="klmmPDJRtt_HLgbDGjna-2" target="kwVWXpZznFQsvgrrptni-1">
          <mxGeometry relative="1" as="geometry">
            <Array as="points">
              <mxPoint x="176" y="100" />
            </Array>
          </mxGeometry>
        </mxCell>
        <mxCell id="klmmPDJRtt_HLgbDGjna-2" value="MSClient" style="rounded=1;whiteSpace=wrap;html=1;" parent="jpqpTq20g_OJKVMwTmPv-2" vertex="1">
          <mxGeometry x="136" y="70" width="120" height="60" as="geometry" />
        </mxCell>
        <mxCell id="klmmPDJRtt_HLgbDGjna-15" style="edgeStyle=orthogonalEdgeStyle;rounded=0;orthogonalLoop=1;jettySize=auto;html=1;" parent="jpqpTq20g_OJKVMwTmPv-2" source="klmmPDJRtt_HLgbDGjna-2" target="kZvP22-OOC9f0tl3EO52-1" edge="1">
          <mxGeometry relative="1" as="geometry" />
        </mxCell>
        <mxCell id="jpqpTq20g_OJKVMwTmPv-6" style="edgeStyle=orthogonalEdgeStyle;rounded=0;orthogonalLoop=1;jettySize=auto;html=1;" parent="jpqpTq20g_OJKVMwTmPv-2" source="klmmPDJRtt_HLgbDGjna-5" target="jpqpTq20g_OJKVMwTmPv-4" edge="1">
          <mxGeometry relative="1" as="geometry">
            <Array as="points">
              <mxPoint x="580" y="210" />
            </Array>
          </mxGeometry>
        </mxCell>
        <mxCell id="klmmPDJRtt_HLgbDGjna-5" value="MSProducts" style="rounded=1;whiteSpace=wrap;html=1;" parent="jpqpTq20g_OJKVMwTmPv-2" vertex="1">
          <mxGeometry x="520" y="70" width="120" height="60" as="geometry" />
        </mxCell>
        <mxCell id="kSkQl4vreCL8ChjPLTnH-4" style="edgeStyle=orthogonalEdgeStyle;rounded=0;orthogonalLoop=1;jettySize=auto;html=1;" parent="jpqpTq20g_OJKVMwTmPv-2" source="klmmPDJRtt_HLgbDGjna-2" target="klmmPDJRtt_HLgbDGjna-5" edge="1">
          <mxGeometry relative="1" as="geometry" />
        </mxCell>
        <mxCell id="kSkQl4vreCL8ChjPLTnH-3" style="edgeStyle=orthogonalEdgeStyle;rounded=0;orthogonalLoop=1;jettySize=auto;html=1;" parent="jpqpTq20g_OJKVMwTmPv-2" source="klmmPDJRtt_HLgbDGjna-5" target="kSkQl4vreCL8ChjPLTnH-2" edge="1">
          <mxGeometry relative="1" as="geometry" />
        </mxCell>
        <mxCell id="jpqpTq20g_OJKVMwTmPv-8" style="edgeStyle=orthogonalEdgeStyle;rounded=0;orthogonalLoop=1;jettySize=auto;html=1;" parent="jpqpTq20g_OJKVMwTmPv-2" source="jpqpTq20g_OJKVMwTmPv-4" target="jpqpTq20g_OJKVMwTmPv-7" edge="1">
          <mxGeometry relative="1" as="geometry" />
        </mxCell>
        <mxCell id="jpqpTq20g_OJKVMwTmPv-4" value="Operations" style="rounded=1;whiteSpace=wrap;html=1;" parent="jpqpTq20g_OJKVMwTmPv-2" vertex="1">
          <mxGeometry x="334" y="180" width="120" height="60" as="geometry" />
        </mxCell>
        <mxCell id="jpqpTq20g_OJKVMwTmPv-7" value="" style="shape=cylinder3;whiteSpace=wrap;html=1;boundedLbl=1;backgroundOutline=1;size=15;" parent="jpqpTq20g_OJKVMwTmPv-2" vertex="1">
          <mxGeometry x="364" y="290" width="60" height="80" as="geometry" />
        </mxCell>
        <mxCell id="kwVWXpZznFQsvgrrptni-3" style="edgeStyle=orthogonalEdgeStyle;rounded=0;orthogonalLoop=1;jettySize=auto;html=1;entryX=0.5;entryY=0.35;entryDx=0;entryDy=0;entryPerimeter=0;" edge="1" parent="jpqpTq20g_OJKVMwTmPv-2" source="kwVWXpZznFQsvgrrptni-1" target="kwVWXpZznFQsvgrrptni-2">
          <mxGeometry relative="1" as="geometry" />
        </mxCell>
        <mxCell id="kwVWXpZznFQsvgrrptni-1" value="Credit Payment" style="rounded=1;whiteSpace=wrap;html=1;" vertex="1" parent="jpqpTq20g_OJKVMwTmPv-2">
          <mxGeometry x="116" y="240" width="120" height="60" as="geometry" />
        </mxCell>
        <mxCell id="kwVWXpZznFQsvgrrptni-2" value="" style="shape=cylinder3;whiteSpace=wrap;html=1;boundedLbl=1;backgroundOutline=1;size=15;" vertex="1" parent="jpqpTq20g_OJKVMwTmPv-2">
          <mxGeometry x="146" y="340" width="60" height="80" as="geometry" />
        </mxCell>
      </root>
    </mxGraphModel>
  </diagram>
</mxfile>
